<svg xmlns="http://www.w3.org/2000/svg" version="1.1" x="0" y="0" viewBox="0 0 144.2 233.2" enable-background="new 0 0 144.154 186.553" xml:space="preserve" width="100" height="100"><rect x="0" y="0" width="144.2" height="233.2" fill="none"/>
  <g fill="#ffffff" transform="matrix(1.6377 0 0 1.6377 -47.2499 -18.721)"><path
    d="M112.3 72.5c0-0.2 0-0.4 0-0.6 0-0.4-0.1-0.9-0.1-1.3 0-0.2-0.1-0.5-0.1-0.7 0-0.4-0.1-0.8-0.1-1.1 0-0.3-0.1-0.5-0.1-0.8 -0.1-0.4-0.1-0.7-0.2-1.1 0-0.3-0.1-0.5-0.2-0.8 -0.1-0.4-0.2-0.7-0.2-1.1 -0.1-0.2-0.1-0.5-0.2-0.7 -0.1-0.4-0.2-0.7-0.3-1.1 -0.1-0.2-0.1-0.5-0.2-0.7 -0.1-0.4-0.3-0.8-0.4-1.1 -0.1-0.2-0.1-0.4-0.2-0.6 -0.2-0.5-0.4-1-0.6-1.5 0 0 0-0.1-0.1-0.2 -0.2-0.6-0.5-1.1-0.8-1.7 -0.1-0.2-0.2-0.4-0.3-0.6 -0.2-0.4-0.4-0.7-0.5-1.1 -0.1-0.2-0.2-0.4-0.4-0.6 -0.2-0.3-0.3-0.6-0.5-0.9 -0.1-0.2-0.3-0.4-0.4-0.7 -0.2-0.3-0.4-0.6-0.6-0.9 -0.1-0.2-0.3-0.4-0.4-0.7 -0.2-0.3-0.4-0.6-0.6-0.8 -0.2-0.2-0.3-0.4-0.5-0.6 -0.2-0.3-0.4-0.5-0.6-0.8 -0.2-0.2-0.3-0.4-0.5-0.6 -0.2-0.3-0.5-0.6-0.7-0.8 -0.2-0.2-0.3-0.4-0.5-0.5 -0.3-0.3-0.6-0.7-0.9-1 -0.1-0.1-0.2-0.2-0.4-0.4 -0.4-0.4-0.8-0.8-1.2-1.2 -0.2-0.2-0.4-0.3-0.5-0.5 -0.3-0.2-0.5-0.5-0.8-0.7 -0.2-0.2-0.4-0.3-0.6-0.5 -0.3-0.2-0.5-0.4-0.8-0.6 -0.2-0.2-0.4-0.3-0.7-0.5 -0.2-0.2-0.4-0.3-0.7-0.5 0 0 0 0-0.1 0 0 0-0.1 0-0.1-0.1 -0.2-0.2-0.5-0.3-0.7-0.5 -0.3-0.2-0.5-0.4-0.8-0.5 -0.2-0.2-0.5-0.3-0.7-0.4 0 0 0 0 0 0 0 0-0.1 0-0.1-0.1 -0.2-0.1-0.5-0.3-0.7-0.4 -0.2-0.1-0.5-0.3-0.7-0.4 -0.3-0.2-0.6-0.3-0.9-0.5 -0.1 0-0.2-0.1-0.3-0.1 -0.1-0.1-0.3-0.1-0.4-0.2 -0.4-0.2-0.7-0.3-1.1-0.5 -0.2-0.1-0.5-0.2-0.7-0.3 -0.1 0-0.1-0.1-0.2-0.1 -0.1-0.1-0.2-0.1-0.4-0.1 -0.3-0.1-0.6-0.2-0.9-0.4 -0.2-0.1-0.5-0.2-0.7-0.3 -0.3-0.1-0.6-0.2-0.9-0.3 0 0-0.1 0-0.1 0 -0.3-0.1-0.5-0.2-0.8-0.2 -0.3-0.1-0.6-0.2-1-0.3 -0.3-0.1-0.5-0.1-0.8-0.2 -0.1 0-0.2-0.1-0.4-0.1 -0.2 0-0.4-0.1-0.6-0.1 -0.3-0.1-0.6-0.1-0.9-0.2 -0.2 0-0.3-0.1-0.5-0.1 0 0 0 0 0 0 -0.2 0-0.5-0.1-0.7-0.1 -0.1 0-0.2 0-0.2 0 -0.9-0.1-1.8-0.2-2.7-0.3 -0.2 0-0.4 0-0.6 0 -0.9-0.1-1.9-0.1-2.8-0.1 -21.9 0-39.7 17.8-39.7 39.7 0 1 0 2.1 0.1 3.1 0 0.3 0 0.6 0.1 0.9 0.1 0.8 0.1 1.6 0.2 2.4 0 0.3 0.1 0.6 0.1 0.9 0.1 1 0.3 2.1 0.5 3.1 0 0.1 0.1 0.3 0.1 0.4 0.2 0.9 0.4 1.8 0.6 2.7 0.1 0.3 0.2 0.6 0.2 1 0.2 0.8 0.4 1.6 0.6 2.3 0.1 0.3 0.2 0.6 0.2 0.8 0.3 1 0.6 2 0.9 3 0.1 0.2 0.2 0.5 0.3 0.7 0.3 0.8 0.5 1.5 0.8 2.3 0.1 0.4 0.3 0.7 0.4 1.1 0.3 0.7 0.6 1.4 0.9 2.2 0.1 0.3 0.2 0.6 0.4 0.9 0.4 0.9 0.8 1.9 1.2 2.8 0.2 0.3 0.3 0.7 0.5 1 0.3 0.6 0.6 1.3 0.9 1.9 0.2 0.4 0.4 0.8 0.6 1.2 0.3 0.6 0.6 1.2 1 1.8 0.2 0.3 0.3 0.7 0.5 1 0.4 0.8 0.8 1.6 1.3 2.3l0 0c1.3 2.4 2.7 4.7 4.1 7 0.1 0.1 0.2 0.2 0.2 0.4 0.6 0.9 1.1 1.8 1.7 2.6 0.2 0.3 0.3 0.5 0.5 0.8 0.5 0.8 1 1.5 1.5 2.2 0.2 0.3 0.4 0.5 0.6 0.8 0.5 0.7 1 1.4 1.4 2 0.2 0.3 0.4 0.5 0.6 0.8 0.5 0.7 0.9 1.3 1.4 1.9 0.2 0.2 0.4 0.5 0.6 0.7 0.5 0.6 1 1.3 1.4 1.9 0.2 0.2 0.3 0.4 0.5 0.6 0.5 0.7 1 1.3 1.6 2 0.1 0.1 0.2 0.2 0.3 0.4 1.8 2.3 3.6 4.3 5.1 6 0.1 0.1 0.2 0.2 0.3 0.3 0.4 0.5 0.8 0.9 1.1 1.3 0.1 0.1 0.2 0.3 0.3 0.4 0.3 0.4 0.6 0.7 0.9 1 0.1 0.1 0.2 0.3 0.3 0.4 0.3 0.3 0.5 0.6 0.7 0.8 0.1 0.1 0.2 0.2 0.3 0.3 0.2 0.2 0.4 0.4 0.6 0.6 0.1 0.1 0.2 0.2 0.2 0.2 0.2 0.2 0.3 0.3 0.4 0.5 0.1 0.1 0.1 0.1 0.2 0.2 0.1 0.1 0.2 0.2 0.3 0.3 0 0 0 0 0.1 0 0.1 0.1 0.1 0.1 0.1 0.1s39.7-38.1 39.7-76.5c0-0.7 0-1.3 0-1.9ZM72.7 106c-0.9 0-1.8 0-2.7-0.1 -0.1 0-0.2 0-0.3 0 -0.9-0.1-1.7-0.2-2.5-0.3 -0.1 0-0.2 0-0.4-0.1 -0.8-0.2-1.7-0.4-2.5-0.6 -0.1 0-0.2-0.1-0.3-0.1 -0.8-0.2-1.6-0.5-2.5-0.8 0 0-0.1 0-0.1 0 -3.4-1.3-6.6-3.2-9.3-5.6 -0.2-0.2-0.5-0.4-0.7-0.6v0c-0.4-0.3-0.8-0.7-1.1-1.1 0 0-0.1-0.1-0.1-0.1 -0.3-0.3-0.6-0.7-1-1 -0.1-0.1-0.1-0.2-0.2-0.2 -0.3-0.3-0.5-0.6-0.8-0.9 -0.1-0.1-0.2-0.2-0.3-0.3 -0.2-0.3-0.5-0.6-0.7-0.9 -0.1-0.1-0.2-0.3-0.3-0.4 -0.2-0.3-0.4-0.6-0.6-0.9 -0.1-0.2-0.2-0.3-0.3-0.5 -0.2-0.3-0.4-0.6-0.5-0.9 -0.1-0.2-0.2-0.3-0.3-0.5 -0.2-0.3-0.3-0.6-0.5-0.9 -0.1-0.2-0.2-0.4-0.3-0.5 -0.1-0.3-0.3-0.6-0.4-0.9 -0.1-0.2-0.2-0.4-0.3-0.6 -0.1-0.3-0.2-0.6-0.4-0.9 -0.1-0.2-0.2-0.4-0.2-0.6 -0.1-0.3-0.2-0.6-0.3-0.9 -0.1-0.2-0.1-0.4-0.2-0.6 -0.1-0.3-0.2-0.6-0.3-0.9 -0.1-0.2-0.1-0.4-0.2-0.7 -0.1-0.3-0.2-0.6-0.2-0.9 -0.1-0.2-0.1-0.4-0.2-0.7 -0.1-0.3-0.1-0.6-0.2-0.9 0-0.2-0.1-0.4-0.1-0.7 0-0.3-0.1-0.7-0.1-1 0-0.2-0.1-0.4-0.1-0.6 0-0.4-0.1-0.7-0.1-1.1 0-0.2 0-0.4 0-0.5 0-0.6 0-1.1 0-1.7 0-17.4 14.1-31.5 31.5-31.5 0.6 0 1.1 0 1.7 0.1 1 0 1.9 0.1 2.8 0.3 0 0 0 0 0 0s0 0 0 0c0.9 0.1 1.8 0.3 2.7 0.5 0.2 0 0.4 0.1 0.6 0.2 0.8 0.2 1.6 0.4 2.4 0.7 0.1 0 0.2 0.1 0.3 0.1 0 0 0 0 0 0 0.8 0.3 1.7 0.6 2.5 1 0.2 0.1 0.4 0.2 0.5 0.3 0.7 0.3 1.3 0.7 1.9 1 0.2 0.1 0.4 0.2 0.5 0.3 0.7 0.4 1.5 0.9 2.2 1.4 0.1 0.1 0.2 0.1 0.2 0.2 0.7 0.5 1.4 1.1 2.1 1.6 0.1 0.1 0.2 0.1 0.2 0.2 0.7 0.6 1.3 1.2 1.9 1.8 0.1 0.1 0.1 0.2 0.2 0.2 0.6 0.6 1.2 1.3 1.7 2 0.1 0.1 0.1 0.2 0.2 0.3 0.5 0.7 1.1 1.4 1.5 2.1 0.1 0.1 0.1 0.2 0.2 0.3 0.5 0.7 0.9 1.5 1.3 2.3 0 0.1 0.1 0.2 0.1 0.3 0.4 0.8 0.8 1.6 1.1 2.4 0 0.1 0.1 0.2 0.1 0.3 0.3 0.8 0.6 1.7 0.9 2.6 0 0.1 0 0.2 0.1 0.2 0.3 0.9 0.5 1.8 0.7 2.7 0 0.1 0 0.1 0 0.2 0.2 0.9 0.3 1.9 0.4 2.9 0 0 0 0.1 0 0.1 0.1 1 0.2 2 0.2 3.1 0 17.4-14.1 31.5-31.5 31.5ZM88.1 59.3l-1.2-0.8c-1.2-0.8-2.9-0.2-4 1.3l-13.6 20.5 -7.4-9.7c-0.7-0.9-2.2-1-3.3-0.2l-1.2 0.9c-1.1 0.9-1.4 2.3-0.7 3.2l8.8 11.5 4.2 5.5 3.8-5.8 14.9-22.3c1-1.5 0.9-3.4-0.3-4.2Z"/></g>
</svg>