<?xml version="1.0" standalone="no"?>
<!DOCTYPE svg PUBLIC "-//W3C//DTD SVG 20010904//EN"
 "http://www.w3.org/TR/2001/REC-SVG-20010904/DTD/svg10.dtd">
<svg version="1.0" xmlns="http://www.w3.org/2000/svg"
 width="1792.000000pt" height="1792.000000pt" viewBox="0 0 1792.000000 1792.000000"
 preserveAspectRatio="xMidYMid meet">
<metadata>
Created by potrace 1.11, written by Peter Selinger 2001-2013
</metadata>
<g transform="translate(0.000000,1792.000000) scale(0.100000,-0.100000)"
fill="#000000" stroke="none">
<path d="M14216 14564 c-163 -26 -319 -99 -440 -203 -29 -26 -490 -487 -4494
-4495 l-2132 -2135 -498 499 c-1225 1229 -2482 2487 -2508 2510 -74 65 -196
136 -284 165 -121 41 -209 53 -355 50 -208 -5 -338 -44 -502 -151 -68 -44
-209 -180 -810 -781 -400 -400 -748 -751 -771 -779 -199 -235 -263 -584 -167
-904 16 -52 90 -209 104 -220 3 -3 20 -25 36 -50 17 -25 1180 -1195 2585
-2600 1978 -1978 2572 -2566 2630 -2606 169 -114 313 -157 530 -158 80 0 159
2 175 6 17 4 44 10 60 13 103 20 229 78 335 153 89 64 8759 8734 8822 8823
118 167 174 342 176 552 1 233 -67 434 -206 605 -25 31 -371 381 -767 778
-484 483 -746 738 -795 773 -103 72 -222 126 -321 146 -124 26 -280 29 -403 9z"/>
</g>
</svg>
